<?xml version="1.0" standalone="no"?><!DOCTYPE svg PUBLIC "-//W3C//DTD SVG 1.1//EN" "http://www.w3.org/Graphics/SVG/1.1/DTD/svg11.dtd"><svg t="1681373626941" class="icon" viewBox="0 0 1024 1024" version="1.1" xmlns="http://www.w3.org/2000/svg" p-id="6827" xmlns:xlink="http://www.w3.org/1999/xlink" width="200" height="200"><path d="M965.153288 0.016004L964.977244 0H59.374844l-0.176044 0.016004C26.486622 0.128032 0 25.782446 0 57.502376v907.106776a59.374844 59.374844 0 0 0 59.374844 59.374844h905.6024a59.374844 59.374844 0 0 0 59.374844-59.374844V57.502376c0-31.71993-26.486622-57.374344-59.1988-57.486372z" fill="#CCCCCC" p-id="6828"></path><path d="M928.328082 191.91998h-864.216054v736.20005a32.008002 32.008002 0 0 0 32.008002 31.991998h832.208052a32.008002 32.008002 0 0 0 32.008002-31.991998V191.91998h-32.008002z" fill="#FFFFFF" p-id="6829"></path><path d="M416.616154 576.032008a95.607902 95.607902 0 1 0 191.215804 0 95.607902 95.607902 0 0 0-191.215804 0z m-31.863966 0c0-125.135284 127.471868-127.535884 127.471868-127.535884h183.91798c-40.458115-58.23856-107.642911-96.52013-183.91798-96.52013-98.088522 0-180.541135 63.43986-210.900725 151.173793l84.565141 84.101026c-0.336084-3.744936-1.136284-7.377844-1.136284-11.218805z m329.330333-95.63991h-118.429608c26.774694 23.365841 44.027007 57.326332 44.027007 95.655914 0 55.549887-31.527882 86.453613-31.527882 86.453613l-133.105276 133.857465c12.163041 2.032508 24.43811 3.728932 37.177294 3.728932 123.742936 0 224.056014-100.313078 224.056014-224.056014 0-34.36059-8.370093-66.544636-22.197549-95.63991zM512.224056 703.503876c-56.542136 0-86.453613-31.527882-86.453613-31.527882l-133.841461-133.105276c-2.048512 12.147037-3.744936 24.422106-3.744936 37.16129 0 98.088522 63.423856 180.541135 151.173793 210.916729l84.085022-84.565141c-3.76094 0.32008-7.377844 1.12028-11.218805 1.12028z" fill="#88C057" p-id="6830"></path><path d="M736.28007 63.887972l-0.32008 0.032008H96.12003a32.008002 32.008002 0 0 0 0 64.016004h640.16004a32.024006 32.024006 0 0 0 0-64.048012z m96.024006 0a32.008002 32.008002 0 1 0 0.032008 64.048012 32.008002 32.008002 0 0 0-0.032008-64.048012z m96.024006 0a32.008002 32.008002 0 1 0 0.032008 64.048012 32.008002 32.008002 0 0 0-0.032008-64.048012z" fill="#FFFFFF" p-id="6831"></path></svg>